<?xml version="1.0" encoding="UTF-8"?>
<svg xmlns="http://www.w3.org/2000/svg" viewBox="45.1587 22.0945 251.9128 160.1275" width="251.9128" height="160.1275">
  <defs>
    <clipPath id="clipPath16">
      <path d="M 0,155.045 H 256.673 V 0 H 0 Z" id="path14"></path>
    </clipPath>
  </defs>
  <g id="g8" transform="matrix(1.3333332538604734, 0, 0, -1.3333332538604734, 0, 206.72667239199083)">
    <g id="g10">
      <g id="g12" clip-path="url(#clipPath16)">
        <g id="g18" transform="translate(147.1051,132.0436)">
          <path d="M 0,0 C -0.907,0.684 -1.851,1.319 -2.829,1.904 -3.563,-0.391 -4.503,-2.59 -5.558,-4.741 -3.335,-4.648 -1.475,-2.548 0,0" style="fill:#e6593f;fill-opacity:1;fill-rule:nonzero;stroke:none" id="path20"></path>
        </g>
        <g id="g22" transform="translate(142.5491,134.906)">
          <path d="M 0,0 C -1.872,0.969 -3.851,1.759 -5.918,2.346 -7.516,-4.099 -8.293,-10.733 -8.518,-17.445 -5.316,-11.757 -1.852,-6.191 0,0" style="fill:#e6593f;fill-opacity:1;fill-rule:nonzero;stroke:none" id="path24"></path>
        </g>
        <g id="g26" transform="translate(129.4273,108.1414)">
          <path d="M 0,0 C 0.028,0.074 0.049,0.149 0.079,0.222 0.804,2.031 1.65,3.794 2.548,5.532 2.545,5.57 2.54,5.606 2.54,5.647 2.581,13.782 3.359,21.82 5.292,29.594 3.635,29.957 1.935,30.196 0.193,30.291 -0.666,25.445 -2.051,20.725 -3.946,15.991 -3.004,10.561 -1.166,5.374 0,0" style="fill:#e6593f;fill-opacity:1;fill-rule:nonzero;stroke:none" id="path28"></path>
        </g>
        <g id="g30" transform="translate(116.4481,136.3818)">
          <path d="M 0,0 C -0.977,-0.373 -1.93,-0.792 -2.859,-1.255 -1.855,-3.264 -0.624,-5.089 0.894,-6.51 0.386,-4.36 0.083,-2.16 0,0" style="fill:#e6593f;fill-opacity:1;fill-rule:nonzero;stroke:none" id="path32"></path>
        </g>
        <g id="g34" transform="translate(124.9539,128.4201)">
          <path d="M 0,0 C 1.143,3.324 2.036,6.656 2.658,10.054 1.763,10.049 0.875,10.005 -0.004,9.925 -0.247,6.618 -0.273,3.299 0,0" style="fill:#e6593f;fill-opacity:1;fill-rule:nonzero;stroke:none" id="path36"></path>
        </g>
        <g id="g38" transform="translate(123.4801,123.9204)">
          <path d="M 0,0 C -0.025,0.075 -0.037,0.159 -0.037,0.245 -0.149,0.969 -0.249,1.695 -0.321,2.428 -0.705,6.366 -0.744,10.29 -0.493,14.193 -2.046,13.957 -3.559,13.607 -5.029,13.156 -4.919,6.792 -2.744,-0.016 0.975,-4.708 0.592,-3.152 0.254,-1.587 0,0" style="fill:#e6593f;fill-opacity:1;fill-rule:nonzero;stroke:none" id="path40"></path>
        </g>
        <g id="g42" transform="translate(153.5921,104.3809)">
          <path d="m 0,0 c 1.35,-1.848 3.209,-4.312 5.265,-5.882 0.472,1.843 0.777,3.755 0.914,5.708 C 4.279,-0.383 2.152,-0.252 0,0" style="fill:#e6593f;fill-opacity:1;fill-rule:nonzero;stroke:none" id="path44"></path>
        </g>
        <g id="g46" transform="translate(140.5769,125.3888)">
          <path d="m 0,0 c -0.93,-1.778 -1.92,-3.535 -2.917,-5.297 2.404,0.284 4.897,0.929 7.157,1.975 0.125,0.113 0.279,0.199 0.457,0.236 1.446,0.716 2.791,1.585 3.923,2.644 0.925,0.864 1.789,1.786 2.623,2.732 C 10.253,3.41 9.184,4.457 8.05,5.426 6.087,2.186 3.47,-0.396 0,0" style="fill:#e6593f;fill-opacity:1;fill-rule:nonzero;stroke:none" id="path48"></path>
        </g>
        <g id="g50" transform="translate(159.8525,106.1278)">
          <path d="m 0,0 c 0,0.117 0.007,0.231 0.007,0.346 0,2.119 -0.211,4.185 -0.603,6.187 C -3.902,4.119 -7.761,2.462 -11.672,0.899 -7.814,0.247 -3.342,-0.618 0,0" style="fill:#e6593f;fill-opacity:1;fill-rule:nonzero;stroke:none" id="path52"></path>
        </g>
        <g id="g54" transform="translate(144.3107,107.5644)">
          <path d="M 0,0 C 0.127,-0.01 0.253,-0.021 0.385,-0.037 5.36,1.955 10.382,3.904 14.46,7.194 14.177,8.253 13.841,9.287 13.456,10.299 8.429,7.535 3.602,4.427 0,0" style="fill:#e6593f;fill-opacity:1;fill-rule:nonzero;stroke:none" id="path56"></path>
        </g>
        <g id="g58" transform="translate(145.6154,120.3101)">
          <path d="m 0,0 c -2.866,-1.323 -6.018,-2.104 -9.143,-2.317 -1.159,-2.062 -2.302,-4.147 -3.339,-6.302 -1.719,-3.566 -2.937,-7.453 -3.743,-11.488 -0.01,-0.075 -0.026,-0.152 -0.05,-0.226 -0.12,-0.612 -0.221,-1.228 -0.321,-1.848 3.152,3.59 7.269,5.837 11.648,7.737 0.017,0.033 0.031,0.069 0.052,0.104 3.919,6.239 9.922,10.264 16.273,13.74 -0.158,0.348 -0.321,0.697 -0.493,1.039 C 7.396,-0.558 3.611,-0.626 0,0" style="fill:#e6593f;fill-opacity:1;fill-rule:nonzero;stroke:none" id="path60"></path>
        </g>
        <g id="g62" transform="translate(148.6576,121.9921)">
          <path d="M 0,0 C -0.031,-0.022 -0.064,-0.038 -0.096,-0.058 2.247,-0.225 4.625,-0.05 6.879,0.539 6.166,1.768 5.372,2.945 4.505,4.064 3.148,2.531 1.69,1.114 0,0" style="fill:#e6593f;fill-opacity:1;fill-rule:nonzero;stroke:none" id="path64"></path>
        </g>
        <g id="g66" transform="translate(97.916,117.8072)">
          <path d="M 0,0 C -0.45,-1.191 -0.831,-2.411 -1.139,-3.664 0.299,-4.613 1.788,-5.463 3.327,-6.176 2.376,-4.036 1.201,-2.011 0,0" style="fill:#e6593f;fill-opacity:1;fill-rule:nonzero;stroke:none" id="path68"></path>
        </g>
        <g id="g70" transform="translate(104.5963,108.2679)">
          <path d="m 0,0 c -2.893,0.853 -5.649,2.169 -8.253,3.81 -0.319,-1.82 -0.498,-3.689 -0.498,-5.604 0,-0.104 0.007,-0.205 0.008,-0.308 C -5.47,-2.18 -2.112,-1.603 0,0" style="fill:#e6593f;fill-opacity:1;fill-rule:nonzero;stroke:none" id="path72"></path>
        </g>
        <g id="g74" transform="translate(116.083,109.5213)">
          <path d="m 0,0 c -0.677,0.772 -1.326,1.57 -1.943,2.397 -4.004,2.661 -8.631,4.489 -12.337,7.576 -0.803,0.671 -1.506,1.383 -2.151,2.125 -0.278,-0.514 -0.539,-1.04 -0.788,-1.571 1.82,-3.066 3.679,-6.108 4.941,-9.465 C -8.442,-0.289 -4.334,-0.776 0,0" style="fill:#e6593f;fill-opacity:1;fill-rule:nonzero;stroke:none" id="path76"></path>
        </g>
        <g id="g78" transform="translate(150.9296,104.6681)">
          <path d="m 0,0 c -0.02,0.025 -0.031,0.052 -0.048,0.08 -2.257,0.331 -4.445,0.694 -6.33,0.829 -6.228,-2.511 -12.193,-5.319 -15.839,-11.153 -0.062,-0.099 -0.136,-0.178 -0.214,-0.241 -0.666,-6.619 -0.369,-13.403 0.577,-19.684 13.677,0.515 25.155,9.608 29.21,22.06 C 4.343,-6.073 1.818,-2.43 0,0" style="fill:#e6593f;fill-opacity:1;fill-rule:nonzero;stroke:none" id="path80"></path>
        </g>
        <g id="g82" transform="translate(110.3603,122.0017)">
          <path d="m 0,0 c 0.703,-1.098 1.372,-2.213 1.982,-3.363 3.727,-7.03 8.983,-12.107 15.37,-16.622 0.132,0.696 0.281,1.387 0.449,2.075 -0.003,0.007 -0.004,0.01 -0.005,0.018 -0.555,3.789 -1.619,7.45 -2.64,11.117 -0.051,0.033 -0.104,0.069 -0.155,0.113 C 11.855,-3.895 9.422,0.181 7.894,4.685 5.146,6.37 3.069,9.089 1.504,12.197 0.976,11.892 0.458,11.574 -0.049,11.241 0.371,7.555 0.496,3.835 0,0" style="fill:#e6593f;fill-opacity:1;fill-rule:nonzero;stroke:none" id="path84"></path>
        </g>
        <g id="g86" transform="translate(126.5983,91.6608)">
          <path d="m 0,0 c 0.173,2.714 0.366,5.468 0.757,8.187 -3.475,2.402 -6.795,4.994 -9.699,7.97 -0.026,-0.009 -0.05,-0.021 -0.079,-0.027 -3.71,-0.819 -7.275,-0.782 -10.666,-0.097 -0.012,-0.014 -0.02,-0.031 -0.034,-0.045 -2.35,-2.641 -6.692,-3.578 -10.94,-3.478 1.165,-16.348 14.6,-29.294 31.151,-29.683 C -0.288,-11.494 -0.366,-5.713 0,0" style="fill:#e6593f;fill-opacity:1;fill-rule:nonzero;stroke:none" id="path88"></path>
        </g>
        <g id="g90" transform="translate(108.4967,131.961)">
          <path d="m 0,0 c -1.096,-0.834 -2.137,-1.735 -3.116,-2.701 1.073,-1.563 2.184,-3.11 3.263,-4.674 C 0.32,-4.889 0.236,-2.437 0,0" style="fill:#e6593f;fill-opacity:1;fill-rule:nonzero;stroke:none" id="path92"></path>
        </g>
        <g id="g94" transform="translate(105.1253,119.5449)">
          <path d="M 0,0 C 2.115,-1.334 4.325,-2.503 6.491,-3.744 6.368,-3.523 6.239,-3.306 6.12,-3.08 4.036,0.852 1.331,4.478 -1.185,8.198 -2.371,6.864 -3.445,5.43 -4.399,3.911 -3.232,2.426 -1.778,1.12 0,0" style="fill:#e6593f;fill-opacity:1;fill-rule:nonzero;stroke:none" id="path96"></path>
        </g>
        <g id="g98" transform="translate(36.972,55.2587)">
          <path d="M 0,0 H 1.021 C 1.975,0 2.689,0.188 3.163,0.565 3.637,0.942 3.874,1.492 3.874,2.213 3.874,2.939 3.675,3.477 3.278,3.824 2.881,4.171 2.259,4.345 1.412,4.345 H 0 Z M 7.007,2.322 C 7.007,0.747 6.515,-0.457 5.53,-1.291 4.546,-2.125 3.146,-2.542 1.332,-2.542 H 0 V -7.747 H -3.103 V 6.887 H 1.572 C 3.347,6.887 4.696,6.505 5.621,5.741 6.544,4.977 7.007,3.837 7.007,2.322" style="fill:#1a171b;fill-opacity:1;fill-rule:nonzero;stroke:none" id="path100"></path>
        </g>
        <g id="g102" transform="translate(46.7416,47.5116)">
          <path d="M 0,0 V 14.634 H 3.103 V 2.563 H 9.039 V 0 Z" style="fill:#1a171b;fill-opacity:1;fill-rule:nonzero;stroke:none" id="path104"></path>
        </g>
        <g id="g106" transform="translate(65.4799,53.5976)">
          <path d="M 0,0 C -0.981,3.156 -1.534,4.941 -1.657,5.355 -1.78,5.769 -1.869,6.096 -1.922,6.336 -2.143,5.481 -2.773,3.369 -3.814,0 Z M 1.802,-6.086 0.74,-2.603 H -4.595 L -5.656,-6.086 H -8.999 L -3.834,8.608 H -0.04 L 5.145,-6.086 Z" style="fill:#1a171b;fill-opacity:1;fill-rule:nonzero;stroke:none" id="path108"></path>
        </g>
        <g id="g110" transform="translate(85.4491,47.5116)">
          <path d="m 0,0 h -3.943 l -6.367,11.07 h -0.09 c 0.127,-1.955 0.19,-3.349 0.19,-4.183 V 0 h -2.772 v 14.634 h 3.914 l 6.356,-10.96 h 0.069 C -2.742,5.575 -2.792,6.92 -2.792,7.707 v 6.927 H 0 Z" style="fill:#1a171b;fill-opacity:1;fill-rule:nonzero;stroke:none" id="path112"></path>
        </g>
        <g id="g114" transform="translate(97.5614,47.5116)">
          <path d="M 0,0 H -8.428 V 14.634 H 0 V 12.092 H -5.325 V 8.879 h 4.954 V 6.336 H -5.325 V 2.563 l 5.325,0 z" style="fill:#1a171b;fill-opacity:1;fill-rule:nonzero;stroke:none" id="path116"></path>
        </g>
        <g id="g118" transform="translate(106.2596,47.5116)">
          <path d="m 0,0 h -3.103 v 12.052 h -3.974 v 2.582 H 3.974 V 12.052 H 0 Z" style="fill:#1a171b;fill-opacity:1;fill-rule:nonzero;stroke:none" id="path120"></path>
        </g>
        <g id="g122" transform="translate(120.9139,47.5116)">
          <path d="M 0,0 H -8.428 V 14.634 H 0 V 12.092 H -5.325 V 8.879 h 4.954 V 6.336 H -5.325 V 2.563 l 5.325,0 z" style="fill:#1a171b;fill-opacity:1;fill-rule:nonzero;stroke:none" id="path124"></path>
        </g>
        <g id="g126" transform="translate(141.204,62.1454)">
          <path d="m 0,0 v -9.469 c 0,-1.081 -0.242,-2.029 -0.726,-2.843 -0.483,-0.814 -1.183,-1.438 -2.097,-1.872 -0.914,-0.433 -1.995,-0.65 -3.243,-0.65 -1.882,0 -3.343,0.481 -4.384,1.446 -1.041,0.964 -1.562,2.284 -1.562,3.959 V 0 h 3.094 v -8.958 c 0,-1.128 0.226,-1.956 0.68,-2.482 0.454,-0.528 1.204,-0.791 2.252,-0.791 1.014,0 1.75,0.264 2.207,0.795 0.457,0.531 0.686,1.363 0.686,2.498 V 0 Z" style="fill:#e6593f;fill-opacity:1;fill-rule:nonzero;stroke:none" id="path128"></path>
        </g>
        <g id="g130" transform="translate(147.8905,55.6493)">
          <path d="M 0,0 H 1.001 C 1.982,0 2.706,0.163 3.173,0.49 3.64,0.817 3.874,1.331 3.874,2.032 3.874,2.726 3.635,3.22 3.158,3.514 2.681,3.807 1.942,3.954 0.941,3.954 H 0 Z M 0,-2.522 V -8.138 H -3.103 V 6.496 H 1.161 C 3.149,6.496 4.621,6.134 5.576,5.41 6.53,4.687 7.007,3.587 7.007,2.112 7.007,1.251 6.77,0.485 6.296,-0.186 5.822,-0.855 5.151,-1.381 4.284,-1.762 6.486,-5.052 7.921,-7.177 8.588,-8.138 H 5.145 l -3.493,5.616 z" style="fill:#e6593f;fill-opacity:1;fill-rule:nonzero;stroke:none" id="path132"></path>
        </g>
        <g id="g134" transform="translate(163.8763,55.7294)">
          <path d="M 0,0 H 5.806 V -7.587 C 4.864,-7.895 3.979,-8.109 3.148,-8.233 2.317,-8.356 1.468,-8.418 0.601,-8.418 c -2.209,0 -3.896,0.648 -5.06,1.946 -1.165,1.298 -1.747,3.162 -1.747,5.591 0,2.362 0.675,4.204 2.027,5.526 1.351,1.321 3.224,1.982 5.62,1.982 1.501,0 2.95,-0.301 4.344,-0.901 L 4.754,3.243 C 3.687,3.777 2.576,4.044 1.421,4.044 c -1.341,0 -2.416,-0.45 -3.223,-1.352 -0.807,-0.9 -1.211,-2.111 -1.211,-3.632 0,-1.589 0.325,-2.802 0.976,-3.639 0.65,-0.838 1.597,-1.257 2.838,-1.257 0.647,0 1.304,0.066 1.971,0.2 v 3.054 l -2.772,0 z" style="fill:#e6593f;fill-opacity:1;fill-rule:nonzero;stroke:none" id="path136"></path>
        </g>
        <g id="g138" transform="translate(181.5931,47.5116)">
          <path d="M 0,0 H -8.428 V 14.634 H 0 V 12.092 H -5.325 V 8.879 h 4.954 V 6.336 H -5.325 V 2.563 l 5.325,0 z" style="fill:#e6593f;fill-opacity:1;fill-rule:nonzero;stroke:none" id="path140"></path>
        </g>
        <g id="g142" transform="translate(197.6283,47.5116)">
          <path d="m 0,0 h -3.943 l -6.367,11.07 h -0.09 c 0.127,-1.955 0.19,-3.349 0.19,-4.183 V 0 h -2.772 v 14.634 h 3.914 l 6.356,-10.96 h 0.069 C -2.742,5.575 -2.792,6.92 -2.792,7.707 v 6.927 H 0 Z" style="fill:#e6593f;fill-opacity:1;fill-rule:nonzero;stroke:none" id="path144"></path>
        </g>
        <g id="g146" transform="translate(207.5282,59.7734)">
          <path d="m 0,0 c -1.167,0 -2.072,-0.438 -2.712,-1.316 -0.641,-0.878 -0.961,-2.101 -0.961,-3.668 0,-3.264 1.224,-4.896 3.673,-4.896 1.028,0 2.272,0.257 3.734,0.772 v -2.603 c -1.201,-0.501 -2.543,-0.751 -4.024,-0.751 -2.129,0 -3.757,0.646 -4.885,1.937 -1.128,1.291 -1.691,3.144 -1.691,5.56 0,1.522 0.276,2.855 0.83,3.999 0.554,1.145 1.35,2.022 2.388,2.633 1.037,0.61 2.253,0.916 3.648,0.916 1.422,0 2.85,-0.345 4.284,-1.031 L 3.283,-0.971 C 2.736,-0.711 2.186,-0.484 1.632,-0.29 1.078,-0.097 0.534,0 0,0" style="fill:#e6593f;fill-opacity:1;fill-rule:nonzero;stroke:none" id="path148"></path>
        </g>
        <g id="g150" transform="translate(222.8036,47.5116)">
          <path d="M 0,0 H -8.428 V 14.634 H 0 V 12.092 H -5.325 V 8.879 h 4.954 V 6.336 H -5.325 V 2.563 l 5.325,0 z" style="fill:#e6593f;fill-opacity:1;fill-rule:nonzero;stroke:none" id="path152"></path>
        </g>
        <g id="g154" transform="translate(166.0511,29.0465)">
          <path d="m 0,0 c 0,1.004 0.694,1.535 1.717,1.535 1.17,0 1.736,-0.731 1.791,-1.956 h 1.004 c 0,1.462 -0.73,2.832 -2.777,2.832 -1.662,0 -2.776,-0.95 -2.776,-2.466 0,-1.022 0.401,-1.808 1.571,-2.375 0.64,-0.291 1.261,-0.402 1.9,-0.676 0.785,-0.311 1.315,-0.785 1.315,-1.827 0,-1.169 -0.95,-1.754 -1.973,-1.754 -1.534,0 -2.009,0.987 -2.065,2.193 h -1.04 c 0,-1.662 0.84,-3.088 3.05,-3.088 1.736,0 3.088,1.024 3.088,2.723 0,1.442 -0.677,2.191 -1.9,2.685 C 2.229,-1.9 1.681,-1.827 1.077,-1.553 0.366,-1.205 0,-0.786 0,0 m -12.294,-2.594 c 0,-3.069 2.173,-5.042 4.968,-5.042 2.777,0 5.024,2.083 5.024,5.042 0,2.978 -2.192,5.06 -4.987,5.06 -2.777,0 -5.005,-2.046 -5.005,-5.06 m 1.096,0 c 0,2.411 1.626,4.11 3.891,4.11 2.265,0 3.909,-1.735 3.909,-4.11 0,-2.411 -1.644,-4.093 -3.909,-4.093 -2.265,0 -3.891,1.682 -3.891,4.093 M -18.268,0 c 0,1.004 0.694,1.535 1.717,1.535 1.169,0 1.736,-0.731 1.791,-1.956 h 1.004 c 0,1.462 -0.73,2.832 -2.777,2.832 -1.662,0 -2.777,-0.95 -2.777,-2.466 0,-1.022 0.402,-1.808 1.572,-2.375 0.639,-0.291 1.261,-0.402 1.9,-0.676 0.785,-0.311 1.314,-0.785 1.314,-1.827 0,-1.169 -0.949,-1.754 -1.972,-1.754 -1.534,0 -2.01,0.987 -2.065,2.193 h -1.041 c 0,-1.662 0.84,-3.088 3.051,-3.088 1.736,0 3.088,1.024 3.088,2.723 0,1.442 -0.677,2.191 -1.9,2.685 -0.677,0.274 -1.224,0.347 -1.828,0.621 -0.712,0.348 -1.077,0.767 -1.077,1.553 m -6.979,0.402 c 1.334,0 2.137,-0.841 2.265,-1.937 h -4.421 c 0.128,1.114 0.914,1.937 2.156,1.937 m -2.21,-3.782 h 6.978 c 0.055,0.42 0.037,0.768 0.037,1.005 0,2.923 -1.864,4.841 -4.787,4.841 -2.831,0 -4.805,-2.155 -4.805,-5.078 0,-3.124 2.029,-5.024 5.007,-5.024 2.375,0 3.69,1.315 4.275,2.539 L -22.561,-4 c -0.512,-0.805 -1.224,-1.462 -2.466,-1.462 -1.389,0 -2.302,0.767 -2.43,2.082 m -11.217,-7.288 v 3.981 c 0.494,-0.419 1.461,-0.949 2.759,-0.949 3.105,0 5.005,2.229 5.005,5.078 0,2.923 -1.918,5.024 -4.896,5.024 -1.553,0 -2.502,-0.603 -2.996,-1.096 v 0.932 h -2.32 v -12.97 z m -0.073,8.074 c 0,1.662 1.004,2.887 2.685,2.887 1.626,0 2.705,-1.225 2.705,-2.887 0,-1.681 -1.005,-2.868 -2.686,-2.868 -1.626,0 -2.704,1.187 -2.704,2.868 m -9.043,-1.243 v 6.139 h -2.448 v -6.43 c 0,-1.992 0.84,-3.454 3.032,-3.454 1.151,0 1.773,0.494 2.047,0.841 v -0.731 h 2.43 v 9.774 h -2.448 v -6.12 c 0,-0.932 -0.476,-1.571 -1.352,-1.571 -0.877,0 -1.261,0.603 -1.261,1.552 m -13.865,1.225 c 0,-2.887 2.046,-5.024 5.097,-5.024 3.015,0 5.115,2.192 5.115,5.06 0,2.869 -2.028,5.042 -5.115,5.042 -2.941,0 -5.097,-2.173 -5.097,-5.078 m 2.448,0.018 c 0,1.662 1.041,2.85 2.649,2.85 1.571,0 2.666,-1.242 2.666,-2.85 0,-1.626 -1.04,-2.832 -2.648,-2.832 -1.571,0 -2.667,1.17 -2.667,2.832 m -2.905,2.375 v 2.557 c -1.023,0 -1.553,-0.328 -1.9,-0.822 v 0.786 h -2.449 v -9.774 h 2.449 v 5.956 c 0,0.858 0.329,1.297 1.279,1.297 z m -6.011,-7.253 v 6.796 h -4.549 v -2.119 h 2.065 v -1.443 c -0.53,-0.567 -1.553,-1.115 -3.014,-1.115 -2.265,0 -3.965,1.662 -3.965,4.22 0,2.466 1.572,4.184 3.855,4.184 1.681,0 2.631,-0.822 3.215,-1.607 l 1.974,1.461 c -0.859,1.351 -2.521,2.502 -5.189,2.502 -3.909,0 -6.504,-2.941 -6.504,-6.54 0,-3.928 2.649,-6.558 6.504,-6.558 1.461,0 2.503,0.439 3.161,0.968 v -0.749 z" style="fill:#1a171b;fill-opacity:1;fill-rule:nonzero;stroke:none" id="path156"></path>
        </g>
      </g>
    </g>
  </g>
</svg>
